<?xml version="1.0" standalone="no"?>
<!DOCTYPE svg PUBLIC "-//W3C//DTD SVG 20010904//EN"
 "http://www.w3.org/TR/2001/REC-SVG-20010904/DTD/svg10.dtd">
<svg version="1.0" xmlns="http://www.w3.org/2000/svg"
 width="280.000000pt" height="280.000000pt" viewBox="0 0 280.000000 280.000000"
 preserveAspectRatio="xMidYMid meet">
<metadata>
Created by potrace 1.14, written by Peter Selinger 2001-2017
</metadata>
<g transform="translate(0.000000,280.000000) scale(0.100000,-0.100000)"
fill="#000000" stroke="none">
<path d="M1325 2516 c-44 -19 -84 -71 -91 -117 l-7 -39 -81 0 c-89 0 -130 -17
-162 -65 l-16 -25 -180 0 -180 0 -39 -39 -39 -39 0 -918 c0 -892 1 -920 19
-948 38 -58 2 -55 851 -55 849 0 813 -3 851 55 18 28 19 56 19 948 l0 918 -39
39 -39 39 -180 0 -180 0 -16 25 c-32 48 -73 65 -162 65 l-81 0 -7 39 c-7 47
-48 99 -93 117 -41 17 -109 17 -148 0z m139 -97 c44 -52 37 -59 -64 -59 -101
0 -108 7 -64 59 20 25 34 31 64 31 30 0 44 -6 64 -31z m267 -149 c16 -9 19
-22 19 -90 l0 -80 -130 0 -130 0 0 -45 0 -45 -90 0 -90 0 0 45 0 45 -130 0
-130 0 0 80 c0 65 3 81 18 89 23 14 637 15 663 1z m-761 -124 l0 -44 -110 -4
c-98 -3 -112 -5 -132 -26 l-23 -23 -3 -710 -2 -710 29 -30 c16 -16 37 -29 45
-29 11 0 16 -9 16 -30 0 -41 18 -76 47 -89 16 -8 189 -11 563 -11 374 0 547 3
563 11 29 13 47 48 47 89 0 21 5 30 16 30 8 0 29 13 45 29 l29 30 -2 710 -3
710 -23 23 c-20 21 -34 23 -132 26 l-110 4 0 44 0 44 164 0 c136 0 167 -3 180
-16 14 -14 16 -110 16 -908 0 -680 -3 -895 -12 -904 -17 -17 -1539 -17 -1556
0 -9 9 -12 224 -12 904 0 798 2 894 16 908 13 13 44 16 180 16 l164 0 0 -44z
m264 -160 c8 -19 23 -39 34 -45 27 -14 237 -14 264 0 11 6 26 26 34 45 l14 34
218 -2 217 -3 0 -680 0 -680 -615 0 -615 0 -3 670 c-1 369 0 676 3 683 3 9 57
12 220 12 l215 0 14 -34z m696 -1441 l0 -25 -530 0 -530 0 0 25 0 25 530 0
530 0 0 -25z"/>
<path d="M968 1620 l4 -40 253 0 253 0 4 40 4 40 -261 0 -261 0 4 -40z"/>
<path d="M1623 1650 c-33 -13 -43 -42 -43 -123 0 -72 1 -76 31 -101 25 -22 41
-26 90 -26 63 0 112 18 123 45 3 9 6 50 6 91 0 66 -3 78 -25 99 -21 22 -33 25
-92 24 -37 0 -78 -4 -90 -9z m127 -115 l0 -45 -45 0 -45 0 0 45 0 45 45 0 45
0 0 -45z"/>
<path d="M1184 1483 l-212 -3 -4 -40 -4 -40 218 0 218 0 0 45 c0 25 -1 44 -2
43 -2 -2 -98 -4 -214 -5z"/>
<path d="M970 1180 l0 -40 255 0 255 0 0 40 0 40 -255 0 -255 0 0 -40z"/>
<path d="M1605 1195 c-22 -21 -25 -33 -25 -103 0 -69 3 -81 23 -100 20 -19 35
-22 103 -22 71 0 83 3 102 23 19 20 22 35 22 103 0 71 -3 83 -23 102 -20 19
-35 22 -101 22 -68 0 -80 -3 -101 -25z m145 -100 l0 -45 -45 0 -45 0 0 45 0
45 45 0 45 0 0 -45z"/>
<path d="M968 1010 l4 -39 214 -3 214 -3 0 43 0 42 -218 0 -218 0 4 -40z"/>
</g>
</svg>
